# xmcd CD database file
#
# Track frame offsets:
#	150
#	13296
#	26198
#	39038
#	51830
#	62130
#	75135
#	86489
#	99374
#	115147
#	134320
#	144370
#	155192
#	164849
#	174742
#	194398
#	202943
#	213928
#	231892
#	244613
#
# Disc length: 3440 seconds
#
# Revision: 0
# Processed by: cddbd v1.5.2PL0 Copyright (c) Steve Scherf et al.
# Submitted via: CDex 1.70beta2
#
DISCID=0d0d6e14
DTITLE=Matt5son, Lary - Cdn. - Collection
DYEAR=1900
DGENRE=Country
TTITLE0=Without You
TTITLE1=Poor Hard Working Man
TTITLE2=Loving You
TTITLE3=Could This Be Love
TTITLE4=Falling For You
TTITLE5=The Life She's Living
TTITLE6=i Lose Again
TTITLE7=You Touch My Heart
TTITLE8=Your Memories Linger
TTITLE9=I'm Waiting For You
TTITLE10=I've Been Wondering
TTITLE11=Sweet Words
TTITLE12=Teh Hardest Thing I Doi
TTITLE13=The Opry North Eastwind Band
TTITLE14=Looking For Someone Like You
TTITLE15=Brand New Same Old Feeling
TTITLE16=Queen of the Ball
TTITLE17=Shining star
TTITLE18=Let's All Sing a Christmas Song
TTITLE19=Teh Spirit of Christmas
EXTD=
EXTT0=
EXTT1=
EXTT2=
EXTT3=
EXTT4=
EXTT5=
EXTT6=
EXTT7=
EXTT8=
EXTT9=
EXTT10=
EXTT11=
EXTT12=
EXTT13=
EXTT14=
EXTT15=
EXTT16=
EXTT17=
EXTT18=
EXTT19=
PLAYORDER=
